<mxfile host="Electron" modified="2024-01-11T01:12:20.627Z" agent="Mozilla/5.0 (Macintosh; Intel Mac OS X 10_15_7) AppleWebKit/537.36 (KHTML, like Gecko) draw.io/22.1.11 Chrome/114.0.5735.289 Electron/25.9.8 Safari/537.36" etag="3cGTNwiDX4MkZ0ylHhh-" version="22.1.11" type="device">
  <diagram id="xX7SkSrh7QM8LSbU5drP" name="第 1 页">
    <mxGraphModel dx="954" dy="617" grid="1" gridSize="10" guides="1" tooltips="1" connect="1" arrows="1" fold="1" page="1" pageScale="1" pageWidth="827" pageHeight="1169" math="0" shadow="0">
      <root>
        <mxCell id="0" />
        <mxCell id="1" parent="0" />
        <mxCell id="VUmhrus12MedcVP45J9S-29" value="" style="rounded=0;whiteSpace=wrap;html=1;fontFamily=Times New Roman;" parent="1" vertex="1">
          <mxGeometry x="650" y="330" width="121" height="50" as="geometry" />
        </mxCell>
        <mxCell id="VUmhrus12MedcVP45J9S-1" value="" style="rounded=0;whiteSpace=wrap;html=1;fontFamily=Times New Roman;" parent="1" vertex="1">
          <mxGeometry x="80" y="240" width="121" height="50" as="geometry" />
        </mxCell>
        <mxCell id="VUmhrus12MedcVP45J9S-2" value="" style="endArrow=none;dashed=1;html=1;rounded=0;fontFamily=Times New Roman;" parent="1" edge="1">
          <mxGeometry x="0.8" y="20" width="50" height="50" relative="1" as="geometry">
            <mxPoint x="230" y="320" as="sourcePoint" />
            <mxPoint x="230" y="200" as="targetPoint" />
            <mxPoint as="offset" />
          </mxGeometry>
        </mxCell>
        <mxCell id="VUmhrus12MedcVP45J9S-3" value="Process 0" style="text;html=1;strokeColor=none;fillColor=none;align=center;verticalAlign=middle;whiteSpace=wrap;rounded=0;fontSize=18;fontFamily=Times New Roman;" parent="1" vertex="1">
          <mxGeometry x="90.5" y="170" width="100" height="30" as="geometry" />
        </mxCell>
        <mxCell id="VUmhrus12MedcVP45J9S-4" value="Process 1" style="text;html=1;strokeColor=none;fillColor=none;align=center;verticalAlign=middle;whiteSpace=wrap;rounded=0;fontSize=18;fontFamily=Times New Roman;" parent="1" vertex="1">
          <mxGeometry x="260.5" y="170" width="100" height="30" as="geometry" />
        </mxCell>
        <mxCell id="VUmhrus12MedcVP45J9S-6" value="DATA" style="rounded=0;whiteSpace=wrap;html=1;fillColor=#FFB703;strokeColor=#d6b656;fontFamily=Times New Roman;" parent="1" vertex="1">
          <mxGeometry x="150" y="245" width="40" height="40" as="geometry" />
        </mxCell>
        <mxCell id="VUmhrus12MedcVP45J9S-7" value="&lt;font style=&quot;font-size: 16px;&quot;&gt;SEND&lt;/font&gt;" style="text;html=1;strokeColor=none;fillColor=none;align=center;verticalAlign=middle;whiteSpace=wrap;rounded=0;fontFamily=Times New Roman;" parent="1" vertex="1">
          <mxGeometry x="90" y="250" width="50" height="30" as="geometry" />
        </mxCell>
        <mxCell id="VUmhrus12MedcVP45J9S-8" value="" style="rounded=0;whiteSpace=wrap;html=1;fontFamily=Times New Roman;" parent="1" vertex="1">
          <mxGeometry x="250" y="260" width="121" height="50" as="geometry" />
        </mxCell>
        <mxCell id="VUmhrus12MedcVP45J9S-9" value="DATA" style="rounded=0;whiteSpace=wrap;html=1;fillColor=#90C9E6;fontColor=#333333;strokeColor=#666666;fontFamily=Times New Roman;" parent="1" vertex="1">
          <mxGeometry x="320" y="265" width="40" height="40" as="geometry" />
        </mxCell>
        <mxCell id="VUmhrus12MedcVP45J9S-10" value="&lt;font style=&quot;font-size: 16px;&quot;&gt;SEND&lt;/font&gt;" style="text;html=1;strokeColor=none;fillColor=none;align=center;verticalAlign=middle;whiteSpace=wrap;rounded=0;fontFamily=Times New Roman;" parent="1" vertex="1">
          <mxGeometry x="260" y="270" width="50" height="30" as="geometry" />
        </mxCell>
        <mxCell id="VUmhrus12MedcVP45J9S-11" value="" style="endArrow=classic;html=1;rounded=0;fontSize=18;exitX=1;exitY=0.5;exitDx=0;exitDy=0;entryX=0;entryY=0.5;entryDx=0;entryDy=0;fontFamily=Times New Roman;" parent="1" source="VUmhrus12MedcVP45J9S-1" target="VUmhrus12MedcVP45J9S-8" edge="1">
          <mxGeometry width="50" height="50" relative="1" as="geometry">
            <mxPoint x="210" y="470" as="sourcePoint" />
            <mxPoint x="260" y="420" as="targetPoint" />
          </mxGeometry>
        </mxCell>
        <mxCell id="VUmhrus12MedcVP45J9S-12" value="（a）双边" style="text;html=1;strokeColor=none;fillColor=none;align=center;verticalAlign=middle;whiteSpace=wrap;rounded=0;fontSize=18;fontFamily=Times New Roman;" parent="1" vertex="1">
          <mxGeometry x="174" y="100" width="150" height="30" as="geometry" />
        </mxCell>
        <mxCell id="VUmhrus12MedcVP45J9S-13" value="" style="rounded=0;whiteSpace=wrap;html=1;fontFamily=Times New Roman;" parent="1" vertex="1">
          <mxGeometry x="480" y="235" width="121" height="50" as="geometry" />
        </mxCell>
        <mxCell id="VUmhrus12MedcVP45J9S-14" value="" style="endArrow=none;dashed=1;html=1;rounded=0;fontFamily=Times New Roman;" parent="1" edge="1">
          <mxGeometry x="0.8" y="20" width="50" height="50" relative="1" as="geometry">
            <mxPoint x="630" y="380" as="sourcePoint" />
            <mxPoint x="630" y="200" as="targetPoint" />
            <mxPoint as="offset" />
          </mxGeometry>
        </mxCell>
        <mxCell id="VUmhrus12MedcVP45J9S-15" value="Process 0" style="text;html=1;strokeColor=none;fillColor=none;align=center;verticalAlign=middle;whiteSpace=wrap;rounded=0;fontSize=18;fontFamily=Times New Roman;" parent="1" vertex="1">
          <mxGeometry x="490.5" y="165" width="100" height="30" as="geometry" />
        </mxCell>
        <mxCell id="VUmhrus12MedcVP45J9S-16" value="Process 1" style="text;html=1;strokeColor=none;fillColor=none;align=center;verticalAlign=middle;whiteSpace=wrap;rounded=0;fontSize=18;fontFamily=Times New Roman;" parent="1" vertex="1">
          <mxGeometry x="660.5" y="165" width="100" height="30" as="geometry" />
        </mxCell>
        <mxCell id="VUmhrus12MedcVP45J9S-17" value="DATA" style="rounded=0;whiteSpace=wrap;html=1;fillColor=#FFB703;strokeColor=#d6b656;fontFamily=Times New Roman;" parent="1" vertex="1">
          <mxGeometry x="550" y="240" width="40" height="40" as="geometry" />
        </mxCell>
        <mxCell id="VUmhrus12MedcVP45J9S-18" value="&lt;span style=&quot;font-size: 16px;&quot;&gt;PUT&lt;/span&gt;" style="text;html=1;strokeColor=none;fillColor=none;align=center;verticalAlign=middle;whiteSpace=wrap;rounded=0;fontFamily=Times New Roman;" parent="1" vertex="1">
          <mxGeometry x="490" y="245" width="50" height="30" as="geometry" />
        </mxCell>
        <mxCell id="VUmhrus12MedcVP45J9S-19" value="" style="rounded=0;whiteSpace=wrap;html=1;fontFamily=Times New Roman;" parent="1" vertex="1">
          <mxGeometry x="650" y="255" width="121" height="50" as="geometry" />
        </mxCell>
        <mxCell id="VUmhrus12MedcVP45J9S-20" value="" style="rounded=0;whiteSpace=wrap;html=1;fillColor=#90C9E6;fontColor=#333333;strokeColor=#666666;fontFamily=Times New Roman;" parent="1" vertex="1">
          <mxGeometry x="720" y="260" width="40" height="40" as="geometry" />
        </mxCell>
        <mxCell id="VUmhrus12MedcVP45J9S-22" value="" style="endArrow=classic;html=1;rounded=0;fontSize=18;exitX=1;exitY=0.5;exitDx=0;exitDy=0;entryX=0;entryY=0.5;entryDx=0;entryDy=0;fontFamily=Times New Roman;" parent="1" source="VUmhrus12MedcVP45J9S-13" target="VUmhrus12MedcVP45J9S-19" edge="1">
          <mxGeometry width="50" height="50" relative="1" as="geometry">
            <mxPoint x="610" y="465" as="sourcePoint" />
            <mxPoint x="660" y="415" as="targetPoint" />
          </mxGeometry>
        </mxCell>
        <mxCell id="VUmhrus12MedcVP45J9S-23" value="（b）单边" style="text;html=1;strokeColor=none;fillColor=none;align=center;verticalAlign=middle;whiteSpace=wrap;rounded=0;fontSize=18;fontFamily=Times New Roman;" parent="1" vertex="1">
          <mxGeometry x="560" y="100" width="150" height="30" as="geometry" />
        </mxCell>
        <mxCell id="VUmhrus12MedcVP45J9S-24" value="" style="rounded=0;whiteSpace=wrap;html=1;fontFamily=Times New Roman;" parent="1" vertex="1">
          <mxGeometry x="480" y="310" width="121" height="50" as="geometry" />
        </mxCell>
        <mxCell id="VUmhrus12MedcVP45J9S-25" value="" style="rounded=0;whiteSpace=wrap;html=1;fillColor=#90C9E6;fontColor=#333333;strokeColor=#666666;fontFamily=Times New Roman;" parent="1" vertex="1">
          <mxGeometry x="550" y="315" width="40" height="40" as="geometry" />
        </mxCell>
        <mxCell id="VUmhrus12MedcVP45J9S-27" value="DATA" style="rounded=0;whiteSpace=wrap;html=1;fillColor=#FFB703;strokeColor=#d6b656;fontFamily=Times New Roman;" parent="1" vertex="1">
          <mxGeometry x="720" y="335" width="40" height="40" as="geometry" />
        </mxCell>
        <mxCell id="VUmhrus12MedcVP45J9S-28" value="" style="endArrow=classic;html=1;rounded=0;fontSize=18;exitX=1;exitY=0.5;exitDx=0;exitDy=0;entryX=0;entryY=0.5;entryDx=0;entryDy=0;fontFamily=Times New Roman;" parent="1" source="VUmhrus12MedcVP45J9S-24" edge="1">
          <mxGeometry width="50" height="50" relative="1" as="geometry">
            <mxPoint x="610" y="540" as="sourcePoint" />
            <mxPoint x="650" y="355" as="targetPoint" />
          </mxGeometry>
        </mxCell>
        <mxCell id="VUmhrus12MedcVP45J9S-30" value="&lt;span style=&quot;font-size: 16px;&quot;&gt;GET&lt;/span&gt;" style="text;html=1;strokeColor=none;fillColor=none;align=center;verticalAlign=middle;whiteSpace=wrap;rounded=0;fontFamily=Times New Roman;" parent="1" vertex="1">
          <mxGeometry x="660" y="340" width="50" height="30" as="geometry" />
        </mxCell>
        <mxCell id="VUmhrus12MedcVP45J9S-31" value="" style="rounded=0;whiteSpace=wrap;html=1;fontSize=18;fillColor=none;strokeColor=none;fontFamily=Times New Roman;" parent="1" vertex="1">
          <mxGeometry x="60" y="140" width="750" height="260" as="geometry" />
        </mxCell>
      </root>
    </mxGraphModel>
  </diagram>
</mxfile>
